<svg id="Layer_1" data-name="Layer 1" xmlns="http://www.w3.org/2000/svg" viewBox="0 0 276 718"><defs><style>.cls-1{font-size:492.17px;font-family:BarricadaPro, Barricada Pro;}.cls-1,.cls-2{fill:#8a15d6;}.cls-2{fill-rule:evenodd;}</style></defs><title>tickets-logo</title><text class="cls-1" transform="translate(79.2 596.42)">J</text><path class="cls-2" d="M108.66,191.92c-17.87-19.07-17-73.59,3.1-93-.79,14.58,2.51,31.19,9.3,41.32-9.55-34.25,5.74-72.26,22.72-93,2,3.41-1.23,10.44,0,16.53C154.36,38.23,168.87,16.59,195.44,7c1,4.93-8,10.5-10.33,18.6C177.05,54,198.9,74.36,201.63,95.84,204.79,85.23,208.37,75,216.1,69c-5.06,38.1,49.25,44.45,30,86.78,7.05-3.28,8.82-11.83,8.26-22.73,14.19,11.94,5.1,41.66-5.16,50.62a28.86,28.86,0,0,0,17.56-17.56c2.93,3.29,1.08,11.14,0,14.46-22.89,70.44-157.28,81-171.49-4.13C99.64,181.65,103,188,108.66,191.92Z"/></svg>